<svg width="16" height="17" viewBox="0 0 16 17" fill="none" xmlns="http://www.w3.org/2000/svg">
<g clip-path="url(#clip0_3_36)">
<path d="M0.881122 8.50615C0.88112 10.4627 1.57398 12.1334 2.95969 13.518C4.3454 14.9027 6.01729 15.595 7.97536 15.595C9.93342 15.595 11.6053 14.9027 12.991 13.518C14.3767 12.1334 15.0696 10.4627 15.0696 8.50615C15.0696 6.54958 14.3767 4.87897 12.991 3.4943C11.6053 2.10966 9.93342 1.41733 7.97536 1.41732C6.01729 1.41733 4.3454 2.10966 2.95969 3.4943C1.57398 4.87897 0.88112 6.54958 0.881122 8.50615ZM0.022583 8.50615C0.0225821 6.30878 0.798279 4.43498 2.34967 2.88475C3.90106 1.33455 5.77629 0.559449 7.97536 0.559433C10.1744 0.559449 12.0496 1.33455 13.6011 2.88475C15.1524 4.43498 15.9281 6.30878 15.9281 8.50615C15.9281 10.7035 15.1524 12.5773 13.6011 14.1276C12.0496 15.6778 10.1744 16.4529 7.97536 16.4529C5.77629 16.4529 3.90106 15.6778 2.34967 14.1276C0.798279 12.5773 0.0225821 10.7035 0.022583 8.50615ZM3.20821 8.29168C3.20821 6.83178 3.64501 5.63526 4.51862 4.70211C5.39221 3.76146 6.48798 3.29113 7.80591 3.29112C8.15233 3.29113 8.49123 3.33252 8.82261 3.41529C9.15396 3.49808 9.47027 3.62601 9.77152 3.79908L10.1443 4.01355C10.2271 4.05871 10.2949 4.09258 10.3476 4.11514C10.4079 4.13773 10.4719 4.14902 10.5397 4.149C10.7054 4.14902 10.8183 4.09634 10.8786 3.99097C10.9463 3.88563 11.0141 3.67868 11.0819 3.37013H11.5564L11.6467 7.25319H11.1045C10.8635 6.07925 10.4644 5.21384 9.90708 4.65696C9.34977 4.1001 8.68704 3.82166 7.91888 3.82165C7.12811 3.82166 6.46538 4.1904 5.93069 4.92787C5.39598 5.65784 5.12862 6.80168 5.12863 8.35941C5.12862 9.37533 5.35455 10.3348 5.80642 11.2378C6.26581 12.1334 7.06033 12.5811 8.19 12.5811C8.99581 12.5811 9.69996 12.314 10.3025 11.7797C10.6489 11.4711 10.9991 11.0234 11.353 10.4364L11.8275 10.7073C11.466 11.362 11.0706 11.8813 10.6414 12.265C9.85811 12.9724 8.92426 13.3261 7.8398 13.3261C6.55952 13.3261 5.46752 12.8558 4.5638 11.9151C3.66007 10.9745 3.20821 9.76665 3.20821 8.29168Z" fill="#E0E0E0"/>
</g>
<defs>
<clipPath id="clip0_3_36">
<rect width="16" height="16" fill="white" transform="translate(0 0.5)"/>
</clipPath>
</defs>
</svg>

