<svg width="78" height="26" viewBox="0 0 78 26" fill="none" xmlns="http://www.w3.org/2000/svg">
<path fill-rule="evenodd" clip-rule="evenodd" d="M77.35 13C77.35 14.5104 76.4323 16.0528 74.5329 17.5497C72.6408 19.0408 69.8626 20.4121 66.3716 21.5757C59.3965 23.9008 49.7191 25.35 39 25.35C28.2809 25.35 18.6035 23.9008 11.6284 21.5757C8.13743 20.4121 5.35924 19.0408 3.46715 17.5497C1.56772 16.0528 0.65 14.5104 0.65 13C0.65 11.4896 1.56772 9.94725 3.46715 8.45033C5.35924 6.95919 8.13743 5.58791 11.6284 4.42426C18.6035 2.09922 28.2809 0.65 39 0.65C49.7191 0.65 59.3965 2.09922 66.3716 4.42426C69.8626 5.58791 72.6408 6.95919 74.5329 8.45033C76.4323 9.94725 77.35 11.4896 77.35 13ZM78 13C78 20.1797 60.5391 26 39 26C17.4609 26 0 20.1797 0 13C0 5.8203 17.4609 0 39 0C60.5391 0 78 5.8203 78 13ZM38.4488 8.17229V7.71989H34.0808V8.17229C35.4536 8.17229 35.828 8.60909 35.828 9.56069V15.2859L30.9452 7.71989H26.3588V8.17229C26.8736 8.17229 27.404 8.35949 27.9968 9.26429V18.3591C27.9968 19.3107 27.638 19.7475 26.2652 19.7475V20.1999H30.7736V19.7475C29.276 19.7475 28.886 19.3107 28.886 18.3591V10.6371L35.1104 20.2311H36.7016V9.56069C36.7016 8.60909 37.076 8.17229 38.4488 8.17229ZM46.29 18.3591V14.6151L48.7392 9.38909C49.2072 8.40629 49.722 8.17229 50.5644 8.17229V7.71989H46.8204V8.17229C48.1932 8.17229 48.1776 8.53109 47.772 9.38909L45.7908 13.4919H45.744L43.7784 9.38909C43.3572 8.53109 43.404 8.17229 45.042 8.17229V7.71989H38.4588V8.17229C39.2076 8.17229 39.7224 8.39069 40.2216 9.35789L42.936 14.7087V18.3591C42.936 19.3107 42.5772 19.7475 41.2044 19.7475V20.1999H48.0372V19.7475C46.6488 19.7475 46.29 19.3107 46.29 18.3591Z" fill="#E0E0E0"/>
</svg>
