<svg width="18" height="19" viewBox="0 0 18 19" fill="none" xmlns="http://www.w3.org/2000/svg">
<path fill-rule="evenodd" clip-rule="evenodd" d="M13.4925 4.36029C13.4882 2.97172 11.7585 1.83772 9.56247 1.73915C9.62749 1.68294 9.67524 1.60945 9.70016 1.5272C9.72509 1.44495 9.72617 1.35732 9.70328 1.27448C9.6804 1.19164 9.63448 1.11699 9.57087 1.0592C9.50725 1.00141 9.42855 0.962854 9.3439 0.948003C9.34047 0.944575 9.33619 0.944575 9.33276 0.944575V0.71486H9.52562V0.572575H9.33276V0.339432H9.19476V0.572575H9.00533V0.71486H9.1939V0.944575C9.08592 0.96129 8.98742 1.01595 8.9161 1.09873C8.84478 1.18152 8.80531 1.28702 8.80476 1.39629C8.80476 1.53515 8.86304 1.65515 8.96162 1.73915C6.76562 1.83772 5.0359 2.97086 5.03162 4.36029H5.9899V4.35257C5.9899 3.42343 6.79819 2.62115 7.89104 2.24572C7.3339 2.69743 6.85647 3.40886 6.85647 4.21029C6.85647 4.26172 6.85647 4.31315 6.8599 4.35943H7.81133V4.32C7.81133 3.22286 8.36419 2.388 8.95819 2.118C8.85533 2.61 8.73962 3.21857 8.73962 3.99515V3.99525C8.73962 4.1195 8.73962 4.24375 8.74304 4.35943H9.78019C9.78447 4.24286 9.78447 4.11943 9.78447 3.99515C9.78447 3.21857 9.6679 2.61 9.5659 2.118C10.1599 2.388 10.7136 3.22286 10.7136 4.32V4.35943H11.6642C11.6676 4.31229 11.6676 4.26172 11.6676 4.21029C11.6676 3.40886 11.1902 2.69743 10.633 2.24572C11.7259 2.62115 12.5342 3.42343 12.5342 4.35257V4.36029H13.4925ZM13.0914 5.74288C12.9827 5.74265 12.8783 5.78557 12.8012 5.86222C12.724 5.93887 12.6804 6.04299 12.68 6.15173C12.6803 6.20713 12.6926 6.26179 12.716 6.31202C12.6105 6.31727 12.511 6.36299 12.4383 6.43969C12.3657 6.51638 12.3254 6.61814 12.3258 6.7238C12.3263 6.82945 12.3674 6.93087 12.4407 7.00696C12.514 7.08304 12.6139 7.12794 12.7194 7.1323C12.818 7.1323 12.9166 7.08773 12.9894 7.02945C12.9094 7.18873 12.7865 7.32257 12.6347 7.41598C12.4828 7.50939 12.308 7.55867 12.1297 7.5583C11.7766 7.5583 11.4706 7.3723 11.3034 7.0843C11.3034 7.0843 11.2854 7.05173 11.2811 7.02945C11.3506 7.09202 11.4457 7.1323 11.5434 7.1323C11.7697 7.1323 11.9548 6.94545 11.9548 6.72002C11.954 6.61223 11.9108 6.5091 11.8347 6.43281C11.7585 6.35651 11.6555 6.31314 11.5477 6.31202C11.5711 6.2618 11.5834 6.20713 11.5837 6.15173C11.583 6.09176 11.569 6.03268 11.5428 5.97873C11.5166 5.92478 11.4788 5.87729 11.4321 5.83964C11.3854 5.802 11.331 5.77514 11.2727 5.76097C11.2144 5.74681 11.1537 5.74571 11.095 5.75773C11.0362 5.76975 10.9808 5.79461 10.9328 5.83052C10.8848 5.86643 10.8453 5.91252 10.8171 5.96547C10.7889 6.01843 10.7728 6.07696 10.7699 6.13686C10.767 6.19677 10.7774 6.25658 10.8003 6.31202C10.6947 6.31684 10.5951 6.36216 10.5222 6.43855C10.4492 6.51494 10.4085 6.61652 10.4085 6.72216C10.4085 6.8278 10.4492 6.92938 10.5222 7.00577C10.5951 7.08216 10.6947 7.12748 10.8003 7.1323C10.9031 7.1323 10.9974 7.08773 11.0703 7.02945C11.0643 7.04829 11.0569 7.06664 11.048 7.0843C10.9628 7.22823 10.8417 7.34748 10.6964 7.43032C10.5511 7.51316 10.3868 7.55672 10.2196 7.55672C10.0523 7.55672 9.88799 7.51316 9.74273 7.43032C9.59746 7.34748 9.47629 7.22823 9.39113 7.0843C9.39113 7.0843 9.37656 7.05173 9.36885 7.02945C9.44345 7.09245 9.53699 7.12866 9.63456 7.1323C9.74014 7.12806 9.84002 7.08328 9.91342 7.00727C9.98682 6.93125 10.0281 6.82987 10.0286 6.72421C10.0292 6.61855 9.98898 6.51674 9.91638 6.43996C9.84378 6.36319 9.74438 6.31736 9.63885 6.31202C9.66502 6.25012 9.67546 6.1827 9.66924 6.11578C9.66302 6.04886 9.64033 5.98452 9.6032 5.92851C9.56607 5.87249 9.51564 5.82654 9.45643 5.79475C9.39722 5.76296 9.33105 5.74632 9.26385 5.74632C9.19664 5.74632 9.13048 5.76296 9.07126 5.79475C9.01205 5.82654 8.96163 5.87249 8.92449 5.92851C8.88736 5.98452 8.86467 6.04886 8.85845 6.11578C8.85223 6.1827 8.86267 6.25012 8.88885 6.31202C8.78332 6.31727 8.68388 6.36299 8.61121 6.43969C8.53853 6.51638 8.49823 6.61814 8.49867 6.7238C8.49911 6.82945 8.54027 6.93087 8.61358 7.00696C8.68689 7.08304 8.78671 7.12794 8.89228 7.1323C8.99049 7.13193 9.08512 7.0953 9.15799 7.02945C9.15601 7.04431 9.14887 7.06031 9.14403 7.07118C9.1405 7.07911 9.13818 7.0843 9.13999 7.0843C9.05414 7.22852 8.9323 7.34796 8.7864 7.43091C8.64049 7.51385 8.47554 7.55746 8.3077 7.55746C8.13987 7.55746 7.97492 7.51385 7.82901 7.43091C7.68311 7.34796 7.56126 7.22852 7.47542 7.0843C7.46661 7.07007 7.46262 7.05798 7.45752 7.04252L7.45313 7.02945C7.52773 7.09245 7.62127 7.12866 7.71885 7.1323C7.82443 7.12806 7.9243 7.08328 7.9977 7.00727C8.0711 6.93125 8.11237 6.82987 8.11292 6.72421C8.11348 6.61855 8.07327 6.51674 8.00067 6.43996C7.92807 6.36319 7.82866 6.31736 7.72313 6.31202C7.74658 6.26182 7.75886 6.20714 7.75913 6.15173C7.7524 6.04765 7.7063 5.95003 7.6302 5.8787C7.55411 5.80737 7.45372 5.76768 7.34942 5.76768C7.24512 5.76768 7.14473 5.80737 7.06863 5.8787C6.99254 5.95003 6.94644 6.04765 6.9397 6.15173C6.9397 6.21002 6.95428 6.26402 6.97656 6.31202C6.87103 6.31684 6.77142 6.36216 6.69844 6.43855C6.62547 6.51494 6.58474 6.61652 6.58474 6.72216C6.58474 6.8278 6.62547 6.92938 6.69844 7.00577C6.77142 7.08216 6.87103 7.12748 6.97656 7.1323C7.07565 7.13112 7.17108 7.09466 7.2457 7.02945L7.24206 7.04004C7.23671 7.05567 7.23338 7.06538 7.2277 7.07745C7.05199 7.37573 6.73228 7.55745 6.38599 7.55745C6.03285 7.55745 5.72342 7.36888 5.5597 7.08087C5.5495 7.07067 5.54577 7.05472 5.54192 7.03828L5.54085 7.03373C5.61379 7.09661 5.70683 7.13127 5.80313 7.13145C5.90726 7.12528 6.00514 7.0797 6.07689 7.00397C6.14864 6.92825 6.18887 6.82806 6.18941 6.72374C6.18996 6.61943 6.15078 6.51882 6.07983 6.44235C6.00888 6.36587 5.91148 6.31928 5.80742 6.31202C5.83081 6.2618 5.84309 6.20713 5.84342 6.15173C5.84364 6.09805 5.83325 6.04485 5.81284 5.9952C5.79243 5.94555 5.76239 5.90043 5.72447 5.86243C5.68655 5.82443 5.64149 5.7943 5.59189 5.77378C5.54228 5.75327 5.4891 5.74276 5.43542 5.74288C5.23485 5.74288 5.08228 5.8783 5.08228 6.12259C5.08228 6.19116 5.11828 6.28288 5.14827 6.35573C5.24599 6.62145 5.85456 8.23973 5.85456 8.23973H12.6688C12.6688 8.23973 13.2688 6.64716 13.3828 6.35573L13.3898 6.33855C13.4169 6.27131 13.4446 6.20281 13.4446 6.1183C13.4446 5.87059 13.2663 5.74288 13.0914 5.74288ZM10.458 10.7299C10.0793 10.573 9.67335 10.4923 9.2634 10.4923C8.8538 10.4923 8.44821 10.573 8.06982 10.7298C7.69143 10.8867 7.34765 11.1165 7.05814 11.4063C6.76862 11.696 6.53905 12.04 6.38253 12.4185C6.22602 12.797 6.14563 13.2027 6.14597 13.6123C6.14529 14.4398 6.47332 15.2338 7.05793 15.8195C7.64253 16.4052 8.43585 16.7348 9.2634 16.7357C9.67335 16.7357 10.0793 16.655 10.458 16.4981C10.8368 16.3412 11.1809 16.1113 11.4708 15.8214C11.7607 15.5315 11.9906 15.1874 12.1475 14.8086C12.3044 14.4299 12.3851 14.0239 12.3851 13.614C12.3851 13.204 12.3044 12.7981 12.1475 12.4194C11.9906 12.0406 11.7607 11.6965 11.4708 11.4066C11.1809 11.1167 10.8368 10.8868 10.458 10.7299ZM16.3983 10.5908V10.5394H17.5348V10.5908L17.4217 10.7657C16.9408 14.844 13.412 18.012 9.13654 18.012C4.87483 18.012 1.3494 14.8628 0.67997 10.8308L0.391113 10.5908V10.5394H4.39397V10.5908L4.12483 10.8351C4.06311 12.4088 4.43511 13.8531 5.30083 14.9717C5.14054 14.5268 5.08654 14.112 5.08654 13.6123C5.08677 12.5043 5.52679 11.4416 6.30996 10.6578C7.09312 9.87402 8.15538 9.43313 9.2634 9.43199C10.3716 9.4329 11.434 9.8737 12.2174 10.6575C13.0007 11.4414 13.4409 12.5041 13.4411 13.6123C13.4411 14.5491 13.1643 15.3908 12.6431 16.0911C13.6663 15.5744 14.551 14.8204 15.2234 13.892C15.8957 12.9637 16.3362 11.8879 16.508 10.7546L16.3983 10.5908Z" fill="#E0E0E0"/>
</svg>
