<svg width="19" height="24" viewBox="0 0 19 24" fill="none" xmlns="http://www.w3.org/2000/svg">
<path d="M15.8058 18.7551C16.6989 18.7551 16.8738 18.192 16.8738 17.6871C16.8752 17.5016 16.8423 17.3174 16.7769 17.1437C16.7383 17.0666 16.5626 16.5806 16.5438 16.542C16.2335 15.3771 16.0586 14.6391 15.4758 13.902C15.3018 13.6877 14.2329 12.7757 14.0203 12.5426C12.7389 11.1257 12.6806 9.06771 12.6806 8.93143C12.6806 8.73771 12.7389 8.36829 12.894 8.36829C12.9909 8.36829 13.554 8.58257 13.554 9.06771C13.554 9.222 13.3209 9.96086 13.3209 10.1349C13.3209 11.5329 16.1949 12 17.01 12C17.8449 12 18 11.5337 18 10.7571C18 9.55371 17.5535 8.38886 16.3115 7.65086C14.1172 6.36857 10.9517 6 9.41832 6C7.76832 6 4.62346 6.38829 2.52689 7.65C1.09032 8.52429 0.857178 9.82457 0.857178 10.7957C0.857178 11.4943 0.973749 11.9991 1.80861 11.9991C2.68289 11.9991 5.51661 11.5329 5.51661 10.1349C5.51661 9.99943 5.47804 9.76629 5.38032 9.49457C5.28346 9.26143 5.28346 9.22286 5.28346 9.06771C5.28346 8.562 5.84661 8.36829 5.92461 8.36829C6.11832 8.36829 6.15689 8.77629 6.15689 8.93143C6.15689 8.98971 6.15689 9.61114 5.90489 10.4846C5.57489 11.688 5.12832 12.3291 4.25489 13.0671C3.53661 13.6689 2.83718 14.2706 2.44889 15.9403C2.41032 16.0757 2.29461 16.542 2.27404 16.62C1.98261 17.3383 1.96375 17.3966 1.96375 17.7069C1.96375 18.2503 2.19689 18.7551 3.03175 18.7551H15.8058ZM9.42004 8.42657C9.73032 8.42657 9.96346 8.40771 10.2352 8.36829C10.2737 8.36829 10.662 8.31 10.6809 8.31C10.992 8.31 11.0503 8.62114 11.0503 8.796C11.0503 9.28114 10.9337 9.37886 9.42004 9.37886C7.94404 9.37886 7.78889 9.28114 7.78889 8.83457C7.78889 8.62029 7.84718 8.31 8.15746 8.31C8.25518 8.31 8.68204 8.388 8.77889 8.388C8.95375 8.40771 9.10889 8.42657 9.42004 8.42657V8.42657ZM9.42004 10.7374C9.85642 10.7357 10.2888 10.8204 10.6923 10.9867C11.0958 11.1529 11.4624 11.3974 11.7709 11.706C12.0795 12.0146 12.3238 12.3813 12.49 12.7848C12.6561 13.1883 12.7407 13.6208 12.7389 14.0571C12.736 14.9367 12.3853 15.7794 11.7633 16.4013C11.1414 17.0232 10.2987 17.3739 9.41918 17.3769C8.98316 17.3771 8.55138 17.2914 8.14851 17.1246C7.74564 16.9579 7.37959 16.7133 7.07128 16.405C6.76297 16.0967 6.51845 15.7307 6.3517 15.3278C6.18495 14.9249 6.09924 14.4932 6.09946 14.0571C6.09924 13.6211 6.18495 13.1893 6.3517 12.7865C6.51845 12.3836 6.76297 12.0176 7.07128 11.7092C7.37959 11.4009 7.74564 11.1564 8.14851 10.9897C8.55138 10.8229 8.98316 10.7372 9.41918 10.7374H9.42004V10.7374Z" fill="#E0E0E0"/>
</svg>
